<svg width="35" height="35" viewBox="0 0 35 35" fill="none" xmlns="http://www.w3.org/2000/svg">
<rect x="0.5" y="0.5" width="34" height="34" rx="17" fill="#222222" stroke="#D17719"/>
<path fill-rule="evenodd" clip-rule="evenodd" d="M23.429 11.0542C23.0187 10.6441 22.4624 10.4137 21.8824 10.4137C21.3024 10.4137 20.7461 10.6441 20.3358 11.0542L19.8203 11.5704L23.4297 15.1798L23.9445 14.6643C24.1477 14.4611 24.3088 14.22 24.4188 13.9545C24.5287 13.6891 24.5853 13.4046 24.5853 13.1173C24.5853 12.83 24.5287 12.5456 24.4188 12.2801C24.3088 12.0147 24.1477 11.7735 23.9445 11.5704L23.429 11.0542ZM22.3979 16.2108L18.7885 12.6015L12.1604 19.2303C12.0154 19.3754 11.9141 19.5583 11.868 19.7582L11.1177 23.0067C11.0898 23.1273 11.093 23.253 11.127 23.372C11.1611 23.491 11.2249 23.5994 11.3124 23.6869C11.4 23.7745 11.5084 23.8383 11.6274 23.8723C11.7464 23.9064 11.8721 23.9096 11.9927 23.8817L15.2419 23.1321C15.4415 23.0859 15.6242 22.9846 15.7691 22.8397L22.3979 16.2108Z" fill="white"/>
</svg>
