<svg width="35" height="35" viewBox="0 0 35 35" fill="none" xmlns="http://www.w3.org/2000/svg">
<rect x="0.5" y="0.5" width="34" height="34" rx="17" fill="#222222" stroke="#D17719"/>
<path d="M21.0417 23.875V18.2083H13.9583V23.875M13.9583 11.125V14.6667H19.625M22.4583 23.875H12.5417C12.1659 23.875 11.8056 23.7257 11.5399 23.4601C11.2743 23.1944 11.125 22.8341 11.125 22.4583V12.5417C11.125 12.1659 11.2743 11.8056 11.5399 11.5399C11.8056 11.2743 12.1659 11.125 12.5417 11.125H20.3333L23.875 14.6667V22.4583C23.875 22.8341 23.7257 23.1944 23.4601 23.4601C23.1944 23.7257 22.8341 23.875 22.4583 23.875Z" stroke="white" stroke-width="2" stroke-linecap="round" stroke-linejoin="round"/>
</svg>
